<?xml version="1.0" encoding="iso-8859-1"?>
<!-- Uploaded to: SVG Repo, www.svgrepo.com, Generator: SVG Repo Mixer Tools -->
<svg height="800px" width="800px" version="1.1" id="Layer_1" xmlns="http://www.w3.org/2000/svg" xmlns:xlink="http://www.w3.org/1999/xlink"
	 viewBox="0 0 512 512" xml:space="preserve">
<g>
	<path style="fill:#C9C6B8;" d="M449.12,512H71.706c-21.389,0-40.033-14.557-45.224-35.31h467.862
		C489.153,497.443,470.509,512,449.12,512"/>
	<path style="fill:#724530;" d="M467.862,344.275H344.276c-24.373,0-44.138-19.765-44.138-44.138v-14.989
		c0-49.434,15.431-96.945,40.095-139.776c10.549-18.308,15.281-40.369,11.679-63.718c-6.568-42.54-41.949-76.253-84.727-81.028
		c-58.633-6.55-108.288,39.168-108.288,96.477c0,18.856,5.385,36.44,14.698,51.324c26.527,42.364,38.268,92.345,38.268,142.327
		v9.384c0,24.373-19.765,44.138-44.138,44.138H44.138C19.765,344.275,0,364.04,0,388.413v88.276h512v-88.276
		C512,364.04,492.235,344.275,467.862,344.275"/>
</g>
</svg>
